<?xml version="1.0" standalone="no"?>
<!DOCTYPE svg PUBLIC "-//W3C//DTD SVG 20010904//EN"
 "http://www.w3.org/TR/2001/REC-SVG-20010904/DTD/svg10.dtd">
<svg version="1.0" xmlns="http://www.w3.org/2000/svg"
 width="720.000000pt" height="202.000000pt" viewBox="0 0 720.000000 202.000000"
 preserveAspectRatio="xMidYMid meet">
<metadata>
Created by potrace 1.15, written by Peter Selinger 2001-2017
</metadata>
<g transform="translate(0.000000,202.000000) scale(0.100000,-0.100000)"
fill="#000000" stroke="none">
<path d="M5853 1692 c-128 -46 -195 -143 -195 -285 0 -117 57 -203 172 -259
51 -25 184 -31 233 -10 27 11 27 13 27 102 l0 90 -38 -25 c-72 -47 -142 -42
-196 14 -75 78 -38 212 66 243 41 12 118 -3 139 -28 23 -27 29 -13 29 66 0 78
-1 81 -27 91 -52 21 -154 21 -210 1z"/>
<path d="M6275 1695 c-75 -41 -111 -109 -103 -197 7 -67 41 -99 137 -128 77
-24 106 -48 96 -79 -13 -41 -89 -44 -148 -5 -21 13 -42 22 -48 19 -5 -4 -21
-29 -35 -57 -24 -48 -24 -50 -7 -63 54 -40 194 -57 275 -35 83 23 136 106 125
196 -7 65 -45 100 -143 133 -83 28 -106 49 -88 79 24 38 66 37 146 -6 4 -2 21
24 37 56 l30 60 -42 18 c-60 24 -193 30 -232 9z"/>
<path d="M2538 1602 c-20 -53 -68 -179 -106 -279 l-70 -183 83 0 83 0 17 50
17 50 97 0 97 0 15 -47 15 -48 82 -3 c45 -2 82 0 82 4 0 4 -46 130 -102 281
l-103 273 -85 0 -85 0 -37 -98z"/>
<path d="M2990 1420 l0 -280 80 0 80 0 2 160 3 159 124 -159 123 -160 79 0 79
0 0 280 0 280 -80 0 -80 0 0 -161 0 -161 -126 161 -126 161 -79 0 -79 0 0
-280z"/>
<path d="M3768 1602 c-20 -53 -68 -179 -106 -279 l-70 -183 83 0 83 0 17 50
17 50 97 0 97 0 15 -47 15 -48 82 -3 c45 -2 82 0 82 4 0 4 -46 130 -102 281
l-103 273 -85 0 -85 0 -37 -98z"/>
<path d="M4220 1420 l0 -280 165 0 165 0 0 65 0 65 -85 0 -85 0 0 215 0 215
-80 0 -80 0 0 -280z"/>
<path d="M4482 1668 c14 -18 61 -85 106 -149 l82 -117 0 -131 0 -131 75 0 75
0 0 133 0 132 88 124 87 124 3 -36 3 -37 60 0 59 0 0 -220 0 -220 75 0 75 0 0
220 0 220 60 0 60 0 0 60 0 60 -274 0 -274 0 -48 -70 c-26 -38 -48 -70 -49
-70 -1 0 -23 32 -50 70 l-48 70 -95 0 -94 0 24 -32z"/>
<path d="M5440 1420 l0 -280 80 0 80 0 0 280 0 280 -80 0 -80 0 0 -280z"/>
</g>
</svg>
